<svg width="75" height="103" viewBox="0 0 75 103" fill="none" xmlns="http://www.w3.org/2000/svg">
<g clip-path="url(#clip0_855_662)">
<path fill-rule="evenodd" clip-rule="evenodd" d="M37.0709 55.7713L34.9792 52.6265C34.3201 51.5968 33.6038 50.428 32.9734 49.2869C31.7986 47.1718 30.3946 44.4723 29.7642 41.8007C28.5608 36.9026 31.4548 33.8413 34.0336 30.613C34.4347 30.1399 34.8932 29.6668 35.2944 29.2215C37.9878 26.2994 41.6841 22.7649 44.5494 19.8428C47.4721 16.865 49.22 13.6089 49.5638 8.82211C49.7357 6.31741 49.2773 0.94622 47.5867 0C48.0738 3.78488 48.2171 6.31741 46.7271 10.0745C45.0365 14.4716 42.2858 17.0876 39.048 19.6758C36.4118 21.7909 32.1138 25.6036 29.8502 27.8578C28.3889 29.2772 25.896 31.8932 24.8645 34.3701C23.3458 38.0993 24.8645 40.5205 26.4977 43.1365C27.2714 44.3889 28.045 45.4464 28.9046 46.5318C29.8502 47.8119 30.7384 48.7303 31.4834 49.7322C32.2857 50.7898 33.2886 51.7916 34.2055 52.8213C34.7213 53.4893 36.4691 55.3817 37.0422 55.7991L37.0709 55.7713Z" fill="white"/>
<path fill-rule="evenodd" clip-rule="evenodd" d="M68.1604 88.0265C69.1919 89.752 68.1604 90.4755 66.785 91.1435C60.5385 94.1769 39.4209 94.7335 32.8306 94.8449C26.1257 94.9562 19.3348 94.65 12.8305 93.4812C11.7703 93.2864 7.1284 92.535 6.92783 91.2548C6.78456 90.4477 7.58686 89.8633 8.01666 89.5571C9.50665 88.6109 12.2574 87.943 14.1199 87.5812C14.6356 87.4699 15.9823 87.3307 16.3835 87.1916C13.2316 86.7185 3.26018 88.4718 1.08251 91.6722C-0.292855 93.676 1.99943 94.65 3.54672 95.151C9.30607 97.0991 21.2546 97.4887 27.587 97.5722C37.014 97.7113 59.7076 97.6 68.0171 91.6722C68.5042 91.3383 69.4784 90.6147 69.5358 89.9189C69.679 89.084 68.6761 88.277 68.1604 88.0543V88.0265Z" fill="white"/>
<path fill-rule="evenodd" clip-rule="evenodd" d="M40.9677 59.7789C41.9705 59.4171 44.9218 56.9124 45.7241 56.0775C46.7843 54.9365 48.5608 52.8771 48.7041 50.4837C48.8474 48.2851 47.386 45.4743 46.5264 44.0828C43.7471 39.6856 41.4834 37.1531 45.2943 32.255C46.5551 30.6409 47.9305 29.3607 49.5351 27.9692C51.4835 26.3272 54.6354 24.0452 56.899 22.5702L59.4778 20.8447C58.1025 21.0395 54.4921 22.5424 53.0881 23.0711C51.1683 23.7947 48.9906 24.9357 47.3001 25.9654C41.5694 29.4164 35.9246 34.7876 38.2456 42.1903C39.7929 47.1997 44.3488 50.2054 44.0049 53.9903C43.747 56.3001 41.6267 58.61 40.9963 59.7789H40.9677Z" fill="white"/>
<path fill-rule="evenodd" clip-rule="evenodd" d="M52.9167 84.3805C51.1401 83.6848 49.8507 82.8777 48.2461 81.9315C47.3292 81.3749 47.6731 81.4305 46.5269 81.7088C41.7418 82.9055 34.0053 82.9612 29.0196 82.7664C27.7589 82.7385 24.1199 82.6272 23.3749 81.347C22.9164 80.54 23.5468 79.9834 23.8047 79.5103C20.5095 80.206 17.1857 83.0168 21.7416 85.3824C26.8706 88.0262 37.673 88.0541 43.2891 87.0244C44.865 86.7182 52.1717 85.0206 52.9167 84.3805Z" fill="white"/>
<path fill-rule="evenodd" clip-rule="evenodd" d="M54.4347 73.2487C53.088 72.8869 51.8559 71.9963 51.0536 71.2727C50.3086 70.6048 50.5664 70.7996 49.0192 71.0501C43.4031 71.9963 26.6694 73.7218 21.9129 71.6624C21.2826 71.4119 20.5662 70.9944 20.5376 70.243C20.5089 69.3246 21.1966 68.8515 21.5404 68.3784C17.7009 68.8515 14.0046 72.6921 19.1335 74.5845C24.9216 76.6439 37.4718 76.6996 43.661 75.8925C45.6954 75.5864 52.916 74.1392 54.4633 73.2487H54.4347Z" fill="white"/>
<path fill-rule="evenodd" clip-rule="evenodd" d="M58.3321 60.1686C57.5871 60.1964 56.6415 60.4191 55.8966 60.5582C55.037 60.6974 54.2346 60.8087 53.3464 60.92C48.1888 61.6436 42.4867 62.2837 37.3291 62.562C33.2889 62.8125 18.1312 63.3412 15.8676 61.1427C15.6957 60.1408 16.7845 59.5285 17.4722 59.1667C20.0797 57.7474 22.8591 57.2186 25.3806 56.4116C21.8562 56.0776 12.9449 58.7214 9.73575 60.8087C6.26868 63.0351 12.0567 63.9535 14.2344 64.2596C26.9279 66.0964 38.7904 65.0945 51.3406 63.2577C53.4037 62.9516 53.8048 63.0629 55.2375 62.1445C56.2404 61.4766 57.4725 60.8365 58.3608 60.1408L58.3321 60.1686Z" fill="white"/>
<path fill-rule="evenodd" clip-rule="evenodd" d="M14.4346 99.8262C17.959 101.357 25.6954 102.331 29.7069 102.637C35.323 103.11 41.5121 102.999 47.1569 102.609C54.4349 102.053 63.0882 101.218 69.478 97.8503C70.9966 97.0432 73.7473 95.0951 74.0052 93.2583C73.5468 93.4809 73.1456 93.9262 72.7445 94.2045C61.4263 102.275 35.6095 101.496 22.257 100.522L14.4346 99.8262Z" fill="white"/>
<path fill-rule="evenodd" clip-rule="evenodd" d="M60.8534 57.0239C63.6042 56.1055 66.7847 56.7178 68.5326 58.3319C70.4524 60.0852 70.4524 63.4248 69.1057 65.9852C67.2718 69.4361 63.4609 72.4696 60.2231 74.5568C59.7073 74.9186 59.1629 75.1691 58.6758 75.5587C60.7102 75.336 65.6099 73.054 67.4438 71.8573C69.822 70.3545 72.4295 68.1281 73.5183 65.2616C75.0656 61.1984 72.802 58.1093 70.4237 56.6065C69.0484 55.7716 67.3865 55.2428 65.438 55.3541C63.948 55.4376 61.5411 56.0499 60.8821 56.9961L60.8534 57.0239Z" fill="white"/>
</g>
<defs>
<clipPath id="clip0_855_662">
<rect width="73.3816" height="102.971" fill="white" transform="translate(0.652344)"/>
</clipPath>
</defs>
</svg>